<svg xmlns="http://www.w3.org/2000/svg" width="24" height="24" fill="none" viewBox="0 0 24 24">
    <path fill="#fff" fill-rule="evenodd" d="M22 2.006c0-.078-.008-.156-.026-.234-.127-.538-.665-.872-1.202-.745L7.809 4.07c-.446.105-.752.494-.77.93H7v11.337c-.454-.215-.963-.336-1.5-.336C3.567 16 2 17.568 2 19.5S3.567 23 5.5 23 9 21.434 9 19.5V9.845l11-2.583v6.076c-.454-.216-.963-.337-1.5-.337-1.933 0-3.5 1.567-3.5 3.5s1.567 3.5 3.5 3.5 3.5-1.567 3.5-3.5V2.005zM9 5.845V7.79l11-2.582V3.262L9 5.845zM20 16.49v.01c0 .829-.671 1.5-1.5 1.5-.828 0-1.5-.671-1.5-1.5 0-.828.672-1.5 1.5-1.5.825 0 1.495.666 1.5 1.49zM7 19.5v-.038C6.98 18.652 6.316 18 5.5 18c-.828 0-1.5.671-1.5 1.5 0 .828.672 1.5 1.5 1.5.829 0 1.5-.672 1.5-1.5z" clip-rule="evenodd"/>
</svg>
